# Blender v2.82 (sub 7) OBJ File: 'modelat lletres.blend'
# www.blender.org
mtllib Lletra_A.mtl
o Lletra_A_Text.001
v 0.186209 0.200616 0.003257
v 0.406316 0.200616 0.003257
v 0.319053 0.535616 0.003257
v 0.382417 0.288616 0.003257
v 0.224209 0.288616 0.003257
v 0.319053 0.535616 0.119857
v 0.224209 0.288616 0.119857
v 0.382417 0.288616 0.119857
v 0.186209 0.200616 0.119857
v 0.406316 0.200616 0.119857
v 0.487890 -0.000384 0.003257
v 0.448533 0.030403 0.003257
v 0.475170 0.001959 0.003257
v 0.463224 0.008633 0.003257
v 0.453870 0.018621 0.003257
v 0.547246 0.030055 0.003257
v 0.524449 -0.000384 0.003257
v 0.537210 0.025046 0.003257
v 0.539825 0.026801 0.003257
v 0.543337 0.028624 0.003257
v 0.548246 0.018406 0.003257
v 0.544265 0.008531 0.003257
v 0.535909 0.001933 0.003257
v 0.524449 -0.000384 0.119857
v 0.547246 0.030055 0.119857
v 0.543337 0.028624 0.119857
v 0.539825 0.026801 0.119857
v 0.537210 0.025046 0.119857
v 0.535909 0.001933 0.119857
v 0.544265 0.008531 0.119857
v 0.548246 0.018406 0.119857
v 0.448533 0.030403 0.119857
v 0.487890 -0.000384 0.119857
v 0.453870 0.018621 0.119857
v 0.463224 0.008633 0.119857
v 0.475170 0.001959 0.119857
v 0.046957 -0.000384 0.003257
v 0.018190 0.042768 0.003257
v 0.021687 0.041138 0.003257
v 0.024109 0.039793 0.003257
v 0.028848 0.036565 0.003257
v 0.031960 0.033928 0.003257
v 0.030436 0.002900 0.003257
v 0.019168 0.012255 0.003257
v 0.014867 0.026254 0.003257
v 0.118598 0.042596 0.003257
v 0.053460 -0.000384 0.003257
v 0.108002 0.026148 0.003257
v 0.091902 0.012204 0.003257
v 0.072750 0.002887 0.003257
v 0.018190 0.042768 0.119857
v 0.046957 -0.000384 0.119857
v 0.031960 0.033928 0.119857
v 0.028848 0.036565 0.119857
v 0.024109 0.039793 0.119857
v 0.021687 0.041138 0.119857
v 0.014867 0.026254 0.119857
v 0.019168 0.012255 0.119857
v 0.030436 0.002900 0.119857
v 0.053460 -0.000384 0.119857
v 0.118598 0.042596 0.119857
v 0.072750 0.002887 0.119857
v 0.091902 0.012204 0.119857
v 0.108002 0.026148 0.119857
v 0.322226 0.685616 0.003257
v 0.364288 0.654115 0.003257
v 0.347392 0.653695 0.003257
v 0.339971 0.656459 0.003257
v 0.339877 0.681395 0.003257
v 0.355272 0.669865 0.003257
v 0.273427 0.655314 0.003257
v 0.318879 0.685616 0.003257
v 0.284138 0.670465 0.003257
v 0.300774 0.681556 0.003257
v 0.318879 0.685616 0.119858
v 0.273427 0.655314 0.119858
v 0.300774 0.681556 0.119858
v 0.284138 0.670465 0.119858
v 0.364288 0.654115 0.119858
v 0.322226 0.685616 0.119858
v 0.339971 0.656459 0.119858
v 0.347392 0.653695 0.119858
v 0.355272 0.669865 0.119858
v 0.339877 0.681395 0.119858
vt -0.611746 2.305059
vt -0.611747 0.829824
vt -0.445003 0.829824
vt -0.445003 2.305059
vt 0.170996 0.534410
vt 0.164219 0.525261
vt 0.585999 -0.879946
vt 0.450368 -0.179925
vt 0.626525 -1.214594
vt 0.650686 -1.215783
vt 0.912322 0.552860
vt 0.906732 0.556914
vt 0.175447 0.541885
vt 0.396027 0.069475
vt 0.710788 0.069475
vt 0.676612 -0.179925
vt 0.901711 0.562082
vt 0.897971 0.567055
vt 0.196894 0.639128
vt 0.299342 0.517319
vt 0.284190 0.563933
vt 0.261166 0.603451
vt 0.233777 0.629856
vt 0.206192 0.639128
vt 1.080496 -1.206256
vt 1.080497 0.674373
vt 0.913753 0.674374
vt 0.913753 -1.206256
vt 0.589353 1.300044
vt 0.580463 1.300044
vt 0.580462 0.969586
vt 0.589353 0.969586
vt 0.620145 0.969586
vt 0.570155 0.969586
vt 0.570155 0.639128
vt 0.620145 0.639128
vt 0.137787 0.525261
vt 0.131011 0.534410
vt -0.148362 -0.179925
vt -0.283992 -0.879946
vt -0.408782 0.069475
vt -0.595965 0.567055
vt -0.599704 0.562082
vt -0.374606 -0.179925
vt 0.126560 0.541885
vt -0.094021 0.069475
vt 0.141251 0.521449
vt -0.324519 -1.214594
vt -0.313906 -1.222426
vt 0.105113 0.639128
vt 0.095814 0.639128
vt 0.068229 0.629856
vt 0.040840 0.603451
vt 0.017817 0.563933
vt 0.002664 0.517319
vt -0.469154 0.551873
vt -0.476786 0.585264
vt -0.490162 0.613572
vt -0.507245 0.632486
vt -0.525435 0.639128
vt -0.577716 0.639128
vt -0.604726 0.556915
vt -0.610316 0.552860
vt -0.348680 -1.215783
vt 0.160756 0.521449
vt 0.615912 -1.222426
vt 0.221970 0.639128
vt 0.221970 1.212707
vt 0.055227 1.212707
vt 0.055227 0.639128
vt 0.827442 0.639128
vt 0.809251 0.632486
vt 0.792168 0.613571
vt 0.778792 0.585264
vt 0.771161 0.551873
vt 0.879723 0.639128
vt -0.611746 0.680893
vt -0.611747 0.673301
vt -0.445003 0.673301
vt -0.445003 0.680893
vt 0.388713 0.998017
vt 0.388713 0.639128
vt 0.555456 0.639128
vt 0.555456 0.998017
vt -0.111517 0.799410
vt -0.111517 1.284846
vt -0.278260 1.284845
vt -0.278260 0.799411
vt -0.445003 1.383526
vt -0.445003 0.639128
vt -0.278260 0.639128
vt -0.278260 1.383526
vt 0.055227 0.639128
vt 0.055227 1.235591
vt -0.111517 1.235591
vt -0.111517 0.639128
vt 0.913753 0.585873
vt 0.908060 0.613860
vt 0.896110 0.632561
vt -0.594104 0.632561
vt -0.606054 0.613861
vt -0.611747 0.585874
vt 0.555456 0.969586
vt 0.555456 0.639128
vt 0.632645 1.300044
vt 0.632645 0.969586
vt 0.646578 0.969586
vt 0.646578 1.300044
vt 0.661721 0.969586
vt 0.661721 1.300044
vt 0.675770 0.969586
vt 0.675770 1.300044
vt 0.638519 0.639128
vt 0.638519 0.969586
vt 0.657648 0.639128
vt 0.657648 0.969586
vt 0.674620 0.639128
vt 0.674620 0.969586
vt 0.388713 1.060790
vt 0.221970 1.060790
vt 0.221970 1.036001
vt 0.388713 1.036001
vt 0.388713 0.639128
vt 0.221970 0.639128
vt 0.173268 0.629818
vt 0.157153 0.603307
vt 0.151003 0.563631
vt 0.155754 0.516830
vt 0.146252 0.516830
vt 0.151003 0.563631
vt 0.144853 0.603308
vt 0.128739 0.629818
vt 0.555456 1.300044
vt 0.555456 0.969586
vt -0.278260 0.639128
vt -0.111517 0.639128
vt -0.111517 0.687877
vt -0.278260 0.687877
vt -0.111517 0.744161
vt -0.278260 0.744161
vt 0.613319 0.969586
vt 0.613319 1.300044
vt 0.632645 0.969586
vt 0.632645 1.300044
vt 1.080497 0.752842
vt 0.913753 0.752842
vt 0.913753 0.721120
vt 1.080497 0.721120
vt -0.288530 -1.305059
vt -0.283745 -1.305059
vt -0.257854 -1.293554
vt -0.234063 -1.262121
vt -0.218746 -1.219182
vt 0.590536 -1.305059
vt 0.615778 -1.293099
vt 0.637794 -1.260421
vt -0.335788 -1.260421
vt -0.313772 -1.293099
vt 0.913753 -1.257658
vt 1.080496 -1.257658
vt 0.913753 -1.305059
vt 1.080496 -1.305059
vt -0.611747 0.639128
vt -0.445003 0.639128
vt -0.611746 0.782615
vt -0.445003 0.782615
vt -0.611747 0.728102
vt -0.445003 0.728102
vt 0.520752 -1.219182
vt 0.536069 -1.262121
vt 0.559860 -1.293554
vt 0.585751 -1.305059
vn 0.9596 0.2813 0.0000
vn 0.0000 0.0000 -1.0000
vn -0.9231 0.3846 0.0000
vn 0.0000 -1.0000 -0.0000
vn -0.0000 -0.0000 1.0000
vn -0.9686 -0.2485 0.0000
vn 0.0000 1.0000 0.0000
vn 0.9194 -0.3934 0.0000
vn 0.9335 -0.3585 0.0000
vn 0.1982 -0.9802 -0.0000
vn 0.6197 -0.7848 -0.0000
vn 0.9275 -0.3739 -0.0000
vn 0.9963 0.0856 0.0000
vn -0.1812 -0.9834 -0.0000
vn -0.4877 -0.8730 -0.0000
vn -0.7299 -0.6835 -0.0000
vn -0.9109 -0.4126 -0.0000
vn -0.9706 -0.2407 -0.0000
vn 0.1672 -0.9859 -0.0000
vn 0.4374 -0.8992 -0.0000
vn 0.6547 -0.7559 -0.0000
vn 0.8407 -0.5416 -0.0000
vn -0.1950 -0.9808 -0.0000
vn -0.6387 -0.7694 -0.0000
vn -0.9559 -0.2936 0.0000
vn -0.9804 0.1972 0.0000
vn -0.8166 0.5773 0.0000
vn -0.5547 0.8321 0.0000
vn -0.2188 0.9758 0.0000
vn 0.8679 0.4968 0.0000
vn 0.5994 0.8004 0.0000
vn 0.2325 0.9726 0.0000
g Lletra_A_Text.001_lletra_N_i_A
usemtl lletra_N_i_A
s off
f 16/1/1 66/2/1 79/3/1 25/4/1
f 41/5/2 40/6/2 3/7/2 5/8/2
f 3/7/2 67/9/2 66/10/2 16/11/2 20/12/2
f 42/13/2 41/5/2 5/8/2 1/14/2
f 2/15/2 4/16/2 19/17/2 18/18/2
f 37/19/2 42/13/2 1/14/2 46/20/2 48/21/2 49/22/2 50/23/2 47/24/2
f 1/14/2 5/8/2 4/16/2
f 1/14/2 4/16/2 2/15/2
f 71/25/3 38/26/3 51/27/3 76/28/3
f 37/29/4 47/30/4 60/31/4 52/32/4
f 11/33/4 17/34/4 24/35/4 33/36/4
f 55/37/5 54/38/5 7/39/5 6/40/5
f 10/41/5 28/42/5 27/43/5 8/44/5
f 54/38/5 53/45/5 9/46/5 7/39/5
f 56/47/5 55/37/5 6/40/5 82/48/5 81/49/5
f 53/45/5 52/50/5 60/51/5 62/52/5 63/53/5 64/54/5 61/55/5 9/46/5
f 9/46/5 8/44/5 7/39/5
f 9/46/5 10/41/5 8/44/5
f 32/56/5 34/57/5 35/58/5 36/59/5 33/60/5 24/61/5 28/42/5 10/41/5
f 6/40/5 26/62/5 25/63/5 79/64/5 82/48/5
f 40/6/2 39/65/2 68/66/2 67/9/2 3/7/2
f 3/67/6 4/68/6 8/69/6 6/70/6
f 8/44/5 27/43/5 26/62/5 6/40/5
f 11/71/2 13/72/2 14/73/2 15/74/2 12/75/2 2/15/2 18/18/2 17/76/2
f 65/77/7 72/78/7 75/79/7 80/80/7
f 4/81/7 5/82/7 7/83/7 8/84/7
f 4/16/2 3/7/2 20/12/2 19/17/2
f 46/85/8 1/86/8 9/87/8 61/88/8
f 5/89/9 3/90/9 6/91/9 7/92/9
f 1/93/4 2/94/4 10/95/4 9/96/4
f 16/11/2 21/97/2 22/98/2 23/99/2 17/76/2 18/18/2 19/17/2 20/12/2
f 24/61/5 29/100/5 30/101/5 31/102/5 25/63/5 26/62/5 27/43/5 28/42/5
f 24/35/10 17/34/10 23/103/10 29/104/10
f 29/105/11 23/106/11 22/107/11 30/108/11
f 30/108/12 22/107/12 21/109/12 31/110/12
f 31/110/13 21/109/13 16/111/13 25/112/13
f 11/33/14 33/36/14 36/113/14 13/114/14
f 13/114/15 36/113/15 35/115/15 14/116/15
f 14/116/16 35/115/16 34/117/16 15/118/16
f 15/119/17 34/120/17 32/121/17 12/122/17
f 2/123/18 12/122/18 32/121/18 10/124/18
f 37/19/2 43/125/2 44/126/2 45/127/2 38/128/2 39/65/2 40/6/2 41/5/2 42/13/2
f 51/129/5 57/130/5 58/131/5 59/132/5 52/50/5 53/45/5 54/38/5 55/37/5 56/47/5
f 60/31/19 47/30/19 50/133/19 62/134/19
f 62/135/20 50/136/20 49/137/20 63/138/20
f 63/138/21 49/137/21 48/139/21 64/140/21
f 64/140/22 48/139/22 46/85/22 61/88/22
f 37/29/23 52/32/23 59/141/23 43/142/23
f 43/142/24 59/141/24 58/143/24 44/144/24
f 44/145/25 58/146/25 57/147/25 45/148/25
f 45/148/26 57/147/26 51/27/26 38/26/26
f 51/129/5 56/47/5 81/49/5 80/149/5 75/150/5 77/151/5 78/152/5 76/153/5
f 65/154/2 69/155/2 70/156/2 66/10/2 67/9/2 68/66/2
f 79/64/5 83/157/5 84/158/5 80/149/5 81/49/5 82/48/5
f 71/25/27 76/28/27 78/159/27 73/160/27
f 73/160/28 78/159/28 77/161/28 74/162/28
f 74/163/29 77/164/29 75/79/29 72/78/29
f 79/3/30 66/2/30 70/165/30 83/166/30
f 83/166/31 70/165/31 69/167/31 84/168/31
f 84/168/32 69/167/32 65/77/32 80/80/32
f 39/65/2 38/128/2 71/169/2 73/170/2 74/171/2 72/172/2 65/154/2 68/66/2
